# xmcd
# Track frame offsets:
# 150
# 19017
# 32085
# 49623
# 63813
# 81282
# 98321
# 114824
# 127755
# 144307
# 163212
# 176469
# 191433
# 208929
# 228721
#
# Disc length: 3317 seconds
# Revision: 0
# Processed by: cddbd v1.5.1PL0 Copyright (c) Steve Scherf et al.
# Submitted via: VisiTrax 2.9.10.228 - For more info visit www.synapsa.com
#
DISCID=b80cf30f
DTITLE=Black, Clint - CB90056
DYEAR=1900
DGENRE=Karaoke
TTITLE0=Nothin' But The Taillights
TTITLE1=Good Run Of Bad Luck, A
TTITLE2=Desperado
TTITLE3=Half The Man
TTITLE4=Half Way Up
TTITLE5=Like The Rain
TTITLE6=Loosen Up My Strings
TTITLE7=One Emotion
TTITLE8=Shoes You're Wearing, The
TTITLE9=Something That We Do
TTITLE10=Summer's Comin'
TTITLE11=This Nightlife
TTITLE12=You Don't Need Me Now
TTITLE13=Wherever You Go
TTITLE14=Still Holding On
EXTD=
EXTT0=
EXTT1=
EXTT2=
EXTT3=
EXTT4=
EXTT5=
EXTT6=
EXTT7=
EXTT8=
EXTT9=
EXTT10=
EXTT11=
EXTT12=
EXTT13=
EXTT14=
PLAYORDER=
